<?xml version="1.0" standalone="no"?><svg xmlns="http://www.w3.org/2000/svg" viewBox="0 0 1440 320"><path fill="#a2d9ff" fill-opacity="1" d="M0,96L9.2,117.3C18.5,139,37,181,55,170.7C73.8,160,92,96,111,74.7C129.2,53,148,75,166,101.3C184.6,128,203,160,222,144C240,128,258,64,277,53.3C295.4,43,314,85,332,128C350.8,171,369,213,388,234.7C406.2,256,425,256,443,224C461.5,192,480,128,498,122.7C516.9,117,535,171,554,186.7C572.3,203,591,181,609,160C627.7,139,646,117,665,106.7C683.1,96,702,96,720,117.3C738.5,139,757,181,775,165.3C793.8,149,812,75,831,48C849.2,21,868,43,886,53.3C904.6,64,923,64,942,69.3C960,75,978,85,997,80C1015.4,75,1034,53,1052,74.7C1070.8,96,1089,160,1108,197.3C1126.2,235,1145,245,1163,218.7C1181.5,192,1200,128,1218,138.7C1236.9,149,1255,235,1274,234.7C1292.3,235,1311,149,1329,122.7C1347.7,96,1366,128,1385,149.3C1403.1,171,1422,181,1431,186.7L1440,192L1440,0L1430.8,0C1421.5,0,1403,0,1385,0C1366.2,0,1348,0,1329,0C1310.8,0,1292,0,1274,0C1255.4,0,1237,0,1218,0C1200,0,1182,0,1163,0C1144.6,0,1126,0,1108,0C1089.2,0,1071,0,1052,0C1033.8,0,1015,0,997,0C978.5,0,960,0,942,0C923.1,0,905,0,886,0C867.7,0,849,0,831,0C812.3,0,794,0,775,0C756.9,0,738,0,720,0C701.5,0,683,0,665,0C646.2,0,628,0,609,0C590.8,0,572,0,554,0C535.4,0,517,0,498,0C480,0,462,0,443,0C424.6,0,406,0,388,0C369.2,0,351,0,332,0C313.8,0,295,0,277,0C258.5,0,240,0,222,0C203.1,0,185,0,166,0C147.7,0,129,0,111,0C92.3,0,74,0,55,0C36.9,0,18,0,9,0L0,0Z"></path></svg>